<svg width="140" height="42" viewBox="0 0 140 42" fill="none" xmlns="http://www.w3.org/2000/svg">
<g clip-path="url(#clip0_329_2036)">
<path d="M138.828 30.2613C138.675 30.2613 138.573 30.2867 138.446 30.363C137.885 30.6425 137.426 30.6425 136.891 30.363C136.764 30.3122 136.636 30.2613 136.509 30.2613C136.687 30.4138 136.891 30.5408 137.12 30.6171C137.528 30.9474 137.859 30.9474 138.267 30.6171C138.446 30.5154 138.624 30.4138 138.828 30.2613Z" fill="white"/>
<path d="M139.057 30.2868C139.21 30.3376 139.337 30.3884 139.439 30.49C139.847 30.8712 140 31.2523 140 31.7859C140 35.902 137.834 39.7133 134.292 41.8476C133.375 42.4065 132.432 41.1361 133.222 40.4247C135.056 38.7731 135.897 36.2831 135.464 33.8693C135.337 33.1833 135.286 32.4973 135.286 31.7859C135.286 31.2269 135.464 30.8457 135.846 30.49C135.948 30.3884 136.076 30.3122 136.229 30.2868C136.458 30.5154 136.713 30.6679 137.019 30.7695C137.477 31.0998 137.809 31.0998 138.267 30.7695C138.573 30.6679 138.828 30.5154 139.057 30.2868Z" fill="white"/>
<path d="M23.2401 8.00363C23.0107 7.64791 22.7049 7.16515 22.3227 6.60617C21.9405 6.04719 21.4563 5.4882 20.8447 4.98004C20.2331 4.47187 19.5196 4.01452 18.6532 3.63339C17.8123 3.25227 16.793 3.049 15.6718 3.049C14.2448 3.049 12.8687 3.37931 11.5946 4.01452C10.3205 4.67514 9.22476 5.58984 8.28191 6.80944C7.33907 8.02904 6.60008 9.50272 6.03947 11.2305C5.47886 12.9583 5.22403 14.8893 5.22403 17.049C5.22403 19.3612 5.50434 21.4955 6.09043 23.4773C6.67653 25.4592 7.49196 27.1615 8.5877 28.6098C9.65796 30.0327 10.9321 31.176 12.4355 31.9891C13.9135 32.8022 15.5699 33.2087 17.3791 33.2087C18.6787 33.2087 19.9019 33.0054 21.0486 32.5989C22.1953 32.1924 23.3165 31.6334 24.4122 30.8965C24.8454 30.6171 25.1767 30.4392 25.3806 30.2867C25.6099 30.1597 25.8393 30.0835 26.1196 30.0835C26.4253 30.0835 26.6802 30.1851 26.9095 30.4138C27.1388 30.6425 27.2408 30.922 27.2408 31.2777C27.2408 31.7096 26.986 32.2432 26.4508 32.8784C25.9412 33.5136 25.2022 34.1234 24.2339 34.6824C23.291 35.2414 22.1443 35.7495 20.8192 36.1561C19.4941 36.5626 18.0162 36.7913 16.3853 36.7913C13.6332 36.7913 11.2379 36.2831 9.19928 35.2668C7.16069 34.2505 5.45337 32.8784 4.10281 31.1252C2.75225 29.3975 1.73295 27.4156 1.04493 25.1797C0.356905 22.9437 0.0256348 20.5808 0.0256348 18.1162C0.0256348 15.9819 0.305941 13.8475 0.892035 11.6878C1.47813 9.52813 2.42098 7.5971 3.69509 5.86933C4.99469 4.14156 6.65104 2.71869 8.68963 1.62613C10.7282 0.558984 13.2 0 16.105 0C17.9397 0 19.5961 0.254083 21.0486 0.736842C22.5265 1.2196 23.7242 1.80399 24.718 2.51543C25.7118 3.22686 26.4508 3.98911 26.986 4.82759C27.4956 5.64065 27.7759 6.37749 27.7759 7.0127C27.7759 7.72414 27.5466 8.28312 27.0624 8.68965C26.6037 9.09619 26.0686 9.32486 25.457 9.32486C25.1257 9.32486 24.769 9.24864 24.3868 9.09619C23.979 8.94374 23.6223 8.58802 23.2401 8.00363Z" fill="white"/>
<path d="M43.5748 30.3376C43.5748 30.6679 43.5493 31.049 43.4983 31.4555C43.4474 31.8621 43.2945 32.2686 43.0397 32.6497C42.7848 33.0309 42.4026 33.3612 41.8675 33.5898C41.3324 33.8439 40.5679 33.971 39.5995 33.971C38.3254 33.971 37.3316 33.7423 36.6436 33.2849C35.9301 32.8276 35.4204 32.3194 35.1147 31.735C34.8089 31.1506 34.605 30.6171 34.554 30.1089C34.5031 29.6007 34.4776 29.2958 34.4776 29.2196C34.4776 28.2541 34.7069 27.441 35.1401 26.7804C35.5733 26.1198 36.1849 25.5608 36.9749 25.0526C37.7648 24.5445 38.7077 24.1125 39.8289 23.706C40.9501 23.2995 42.1987 22.8929 43.5748 22.461C43.5748 25.1035 43.5748 27.7205 43.5748 30.3376ZM47.9323 17.5572C47.9323 16.8966 47.8813 16.1089 47.7794 15.1688C47.6775 14.2541 47.3971 13.3648 46.9385 12.5517C46.4798 11.7133 45.7408 11.0018 44.7215 10.4174C43.7277 9.83304 42.3007 9.55354 40.466 9.55354C39.1154 9.55354 37.8922 9.7314 36.771 10.0617C35.6498 10.392 34.6815 10.8494 33.8915 11.4084C33.0761 11.9673 32.4645 12.628 32.0058 13.3394C31.5471 14.0508 31.3178 14.7877 31.3178 15.5245C31.3178 16.3376 31.5726 16.8711 32.0568 17.176C32.5409 17.4809 32.9741 17.6334 33.3309 17.6334C34.0954 17.6334 34.6305 17.3793 34.9108 16.8966C35.1911 16.4138 35.4204 15.931 35.5988 15.4737C35.7008 15.245 35.8536 14.9401 36.032 14.559C36.2104 14.1779 36.4652 13.8221 36.7965 13.4918C37.1023 13.1615 37.51 12.8566 37.9942 12.628C38.4783 12.3739 39.0899 12.2468 39.8289 12.2468C40.7717 12.2468 41.4852 12.4247 42.0204 12.8058C42.53 13.1615 42.9123 13.6443 43.1416 14.1779C43.3709 14.7368 43.4983 15.3212 43.5493 15.931C43.5748 16.5408 43.6003 17.0998 43.6003 17.608C43.6003 18.4465 43.6003 19.3104 43.6003 20.1488C41.5872 20.7586 39.7524 21.3176 38.0706 21.8766C36.3888 22.4356 34.9618 23.0454 33.7641 23.7568C32.5664 24.4682 31.6236 25.3067 30.961 26.2722C30.2985 27.2632 29.9672 28.4574 29.9672 29.9056C29.9672 31.608 30.3495 32.9292 31.1394 33.8439C31.9294 34.7586 32.8212 35.4446 33.8405 35.8766C34.8598 36.3085 35.8536 36.5626 36.7965 36.6388C37.7393 36.7151 38.4019 36.7405 38.7332 36.7405C39.2683 36.7405 39.8544 36.7151 40.4914 36.6643C41.1285 36.6134 41.7656 36.5372 42.3771 36.4356C42.9887 36.3339 43.6003 36.2069 44.2119 36.029C44.8234 35.8512 45.3586 35.6479 45.8172 35.3684C46.7601 34.8603 47.3462 34.2759 47.5755 33.5898C47.8049 32.9038 47.9323 31.9891 47.9832 30.8711C47.9323 26.3993 47.9323 21.9782 47.9323 17.5572Z" fill="white"/>
<path d="M57.4117 35.1652C57.4117 35.5971 57.3353 35.8766 57.1824 35.9528C57.0295 36.029 56.7747 36.0799 56.3924 36.0799C55.5005 36.0799 54.5832 36.0799 53.6913 36.0799C53.3345 36.0799 53.1052 36.029 53.0288 35.902C52.9523 35.775 52.9268 35.5463 52.9268 35.1652C52.9268 26.9583 52.9268 18.7514 52.9268 10.5445C52.9268 10.2142 52.9523 9.96007 53.0288 9.80762C53.1052 9.65517 53.3345 9.57895 53.7932 9.57895C54.6596 9.57895 55.526 9.57895 56.3924 9.57895C56.8001 9.57895 57.055 9.62977 57.2079 9.75681C57.3353 9.88385 57.4117 10.1379 57.4117 10.5445C57.4117 18.7514 57.4117 26.9583 57.4117 35.1652Z" fill="white"/>
<path d="M106.644 35.0889C106.644 35.3176 106.618 35.5209 106.542 35.7241C106.465 35.902 106.312 36.029 106.032 36.1053C105.115 36.1053 104.197 36.1053 103.28 36.1053C102.872 36.1053 102.592 36.0545 102.439 35.9528C102.261 35.8512 102.184 35.5717 102.184 35.1143C102.184 29.4991 102.184 23.9093 102.184 18.294C102.184 17.6842 102.159 17.049 102.082 16.3376C102.006 15.6261 101.802 14.9655 101.42 14.3557C101.063 13.7459 100.477 13.2123 99.6869 12.8058C98.8969 12.3993 97.7757 12.1706 96.2977 12.1706C94.9472 12.1706 93.9279 12.3485 93.1889 12.7042C92.4499 13.0599 91.9148 13.4664 91.5835 13.9238C91.2522 14.3811 91.0484 14.8893 90.9719 15.3975C90.8955 15.9056 90.87 16.3122 90.87 16.6171C90.87 22.7659 90.87 28.9401 90.87 35.0889C90.87 35.5463 90.7935 35.8512 90.6152 35.9274C90.4368 36.029 90.182 36.0799 89.7997 36.0799C88.9843 36.0799 88.1689 36.0799 87.328 36.0799C86.9712 36.1053 86.7164 36.0799 86.5635 35.9528C86.4361 35.8258 86.3596 35.5717 86.3596 35.1398C86.3596 28.4065 86.3596 21.6987 86.3596 14.9655C86.3596 14 86.487 13.2632 86.7164 12.7296C86.9457 12.2214 87.5063 11.7387 88.3727 11.3067C89.2136 10.8748 90.1055 10.5445 91.0484 10.3158C91.9912 10.0871 92.9086 9.90926 93.724 9.78222C94.5649 9.65518 95.2784 9.60436 95.89 9.57895C96.5016 9.55354 96.8583 9.55354 96.9858 9.55354C99.3556 9.55354 101.19 9.83304 102.515 10.4174C103.815 11.0018 104.783 11.7133 105.369 12.5771C105.981 13.4156 106.312 14.3303 106.414 15.2704C106.516 16.2105 106.567 17.0744 106.567 17.7858C106.644 23.579 106.644 29.3212 106.644 35.0889Z" fill="white"/>
<path d="M124.354 30.3376C124.354 30.6679 124.328 31.049 124.277 31.4555C124.226 31.8621 124.074 32.2686 123.819 32.6497C123.564 33.0309 123.182 33.3612 122.646 33.5898C122.111 33.8439 121.347 33.971 120.379 33.971C119.104 33.971 118.111 33.7423 117.423 33.2849C116.709 32.8276 116.199 32.3194 115.894 31.735C115.588 31.1506 115.384 30.6171 115.333 30.1089C115.282 29.6007 115.257 29.2958 115.257 29.2196C115.257 28.2541 115.486 27.441 115.919 26.7804C116.352 26.1198 116.964 25.5608 117.754 25.0526C118.544 24.5445 119.487 24.1125 120.608 23.706C121.729 23.2995 122.978 22.8929 124.354 22.461C124.354 25.1035 124.354 27.7205 124.354 30.3376ZM128.737 17.5572C128.737 16.8966 128.686 16.1089 128.584 15.1688C128.482 14.2541 128.202 13.3648 127.743 12.5517C127.284 11.7133 126.545 11.0018 125.526 10.4174C124.532 9.83304 123.105 9.55354 121.27 9.55354C119.92 9.55354 118.697 9.7314 117.576 10.0617C116.454 10.392 115.486 10.8494 114.696 11.4084C113.881 11.9673 113.269 12.628 112.81 13.3394C112.352 14.0508 112.122 14.7877 112.122 15.5245C112.122 16.3376 112.377 16.8711 112.861 17.176C113.345 17.4809 113.779 17.6334 114.135 17.6334C114.9 17.6334 115.435 17.3793 115.715 16.8966C115.996 16.4138 116.225 15.931 116.403 15.4737C116.505 15.245 116.658 14.9401 116.837 14.559C117.015 14.1779 117.27 13.8221 117.601 13.4918C117.907 13.1615 118.315 12.8566 118.799 12.628C119.283 12.3739 119.894 12.2468 120.633 12.2468C121.576 12.2468 122.29 12.4247 122.825 12.8058C123.335 13.1615 123.717 13.6443 123.946 14.1779C124.175 14.7368 124.303 15.3212 124.354 15.931C124.379 16.5408 124.405 17.0998 124.405 17.608C124.405 18.4465 124.405 19.3104 124.405 20.1488C122.392 20.7586 120.557 21.3176 118.875 21.8766C117.193 22.4356 115.766 23.0454 114.569 23.7568C113.371 24.4682 112.428 25.3067 111.766 26.2722C111.103 27.2632 110.772 28.4574 110.772 29.9056C110.772 31.608 111.154 32.9292 111.944 33.8439C112.734 34.7586 113.626 35.4446 114.645 35.8766C115.664 36.3085 116.658 36.5626 117.601 36.6388C118.544 36.7151 119.206 36.7405 119.538 36.7405C120.073 36.7405 120.659 36.7151 121.296 36.6643C121.933 36.6134 122.57 36.5372 123.182 36.4356C123.793 36.3339 124.405 36.2069 125.016 36.029C125.628 35.8512 126.163 35.6479 126.622 35.3684C127.565 34.8603 128.151 34.2759 128.38 33.5898C128.609 32.9038 128.737 31.9891 128.788 30.8711C128.737 26.3993 128.737 21.9782 128.737 17.5572Z" fill="white"/>
<path d="M65.3367 22.3339C65.4387 24.1125 65.719 25.637 66.1776 26.9074C66.6363 28.2033 67.2224 29.245 67.9359 30.0835C68.6494 30.922 69.4394 31.5318 70.3313 31.9637C71.2231 32.3956 72.1405 32.5989 73.1088 32.5989C74.6123 32.5989 75.9374 32.2178 77.0841 31.4301C78.2308 30.6425 79.1991 29.5753 80.04 28.2033C80.3968 27.5935 80.6771 27.2123 80.83 27.0345C80.9829 26.8566 81.2122 26.755 81.518 26.755C81.6964 26.755 81.9002 26.8312 82.1551 26.9583C82.4099 27.0853 82.5373 27.4156 82.5373 27.9492C82.5373 28.2795 82.3844 28.9147 82.0531 29.8802C81.7474 30.8203 81.2122 31.8113 80.4478 32.8276C79.6833 33.8439 78.664 34.7586 77.3644 35.5209C76.0648 36.3085 74.4339 36.6897 72.4973 36.6897C71.7328 36.6897 70.9174 36.6134 70.051 36.4356C69.21 36.2577 68.3436 35.9528 67.5282 35.5209C66.6873 35.0635 65.8973 34.4791 65.1329 33.7423C64.3684 33.0054 63.7313 32.0653 63.1452 30.8966C62.4827 29.6261 62.0495 28.3303 61.8456 26.9583C61.6418 25.6116 61.5399 24.3412 61.5399 23.1724C61.5399 21.3684 61.6927 19.8185 62.024 18.4973C62.3298 17.176 62.763 16.0581 63.2472 15.118C63.3746 14.8385 63.6549 14.4065 64.0626 13.7967C64.4703 13.1869 65.0309 12.5517 65.7954 11.9419C66.5599 11.3321 67.4772 10.7731 68.573 10.2904C69.6687 9.80763 70.9938 9.55354 72.5482 9.55354C74.5104 9.55354 76.1412 9.90926 77.3899 10.6461C78.6385 11.3829 79.6323 12.2468 80.3203 13.2123C81.0339 14.2033 81.518 15.1942 81.7728 16.1851C82.0531 17.176 82.1806 17.9383 82.1806 18.4465C82.1806 19.1579 82.0022 19.5644 81.6709 19.7169C81.3396 19.8693 81.0084 19.971 80.7281 20.0472C75.5806 20.8094 70.4587 21.5717 65.3367 22.3339ZM77.3389 18.0145C77.1605 16.4138 76.5999 15.0672 75.6061 14C74.6123 12.9329 73.4146 12.3993 71.9621 12.3993C69.9235 12.3993 68.3691 13.0853 67.3244 14.4828C66.2796 15.8802 65.617 17.6588 65.3367 19.8693C69.3375 19.2595 73.3382 18.6243 77.3389 18.0145Z" fill="white"/>
</g>
<defs>
<clipPath id="clip0_329_2036">
<rect width="140" height="42" fill="white"/>
</clipPath>
</defs>
</svg>
